<mxfile host="65bd71144e">
    <diagram id="P4zU7YYvW7Uebkn4KFdy" name="Page-1">
        <mxGraphModel dx="914" dy="680" grid="1" gridSize="10" guides="1" tooltips="1" connect="1" arrows="1" fold="1" page="1" pageScale="1" pageWidth="850" pageHeight="1100" background="#FFFFFF" math="0" shadow="0">
            <root>
                <mxCell id="0"/>
                <mxCell id="1" parent="0"/>
                <mxCell id="43" style="edgeStyle=none;html=1;noEdgeStyle=1;orthogonal=1;" edge="1" parent="1" source="20" target="34">
                    <mxGeometry relative="1" as="geometry">
                        <Array as="points">
                            <mxPoint x="100" y="651.3636363636364"/>
                            <mxPoint x="168" y="717.5"/>
                        </Array>
                    </mxGeometry>
                </mxCell>
                <mxCell id="44" style="edgeStyle=none;html=1;noEdgeStyle=1;orthogonal=1;" edge="1" parent="1" source="20" target="35">
                    <mxGeometry relative="1" as="geometry">
                        <Array as="points">
                            <mxPoint x="100" y="638.6363636363636"/>
                            <mxPoint x="168" y="497.5"/>
                        </Array>
                    </mxGeometry>
                </mxCell>
                <mxCell id="47" style="edgeStyle=none;html=1;noEdgeStyle=1;orthogonal=1;" edge="1" parent="1" source="20" target="36">
                    <mxGeometry relative="1" as="geometry">
                        <Array as="points">
                            <mxPoint x="102" y="645"/>
                            <mxPoint x="168" y="607.5"/>
                        </Array>
                    </mxGeometry>
                </mxCell>
                <mxCell id="48" style="edgeStyle=none;html=1;noEdgeStyle=1;orthogonal=1;" edge="1" parent="1" source="20" target="37">
                    <mxGeometry relative="1" as="geometry">
                        <Array as="points">
                            <mxPoint x="94" y="619.5454545454545"/>
                            <mxPoint x="168" y="167.5"/>
                        </Array>
                    </mxGeometry>
                </mxCell>
                <mxCell id="49" style="edgeStyle=none;html=1;noEdgeStyle=1;orthogonal=1;" edge="1" parent="1" source="20" target="42">
                    <mxGeometry relative="1" as="geometry">
                        <Array as="points">
                            <mxPoint x="92" y="613.1818181818181"/>
                            <mxPoint x="168" y="57.5"/>
                        </Array>
                    </mxGeometry>
                </mxCell>
                <mxCell id="81" style="edgeStyle=none;html=1;noEdgeStyle=1;orthogonal=1;" edge="1" parent="1" source="20" target="80">
                    <mxGeometry relative="1" as="geometry">
                        <Array as="points">
                            <mxPoint x="98" y="632.2727272727273"/>
                            <mxPoint x="168" y="387.5"/>
                        </Array>
                    </mxGeometry>
                </mxCell>
                <mxCell id="84" style="edgeStyle=none;html=1;noEdgeStyle=1;orthogonal=1;" edge="1" parent="1" source="20" target="83">
                    <mxGeometry relative="1" as="geometry">
                        <Array as="points">
                            <mxPoint x="96" y="625.9090909090909"/>
                            <mxPoint x="168" y="277.5"/>
                        </Array>
                    </mxGeometry>
                </mxCell>
                <mxCell id="90" style="edgeStyle=none;html=1;noEdgeStyle=1;orthogonal=1;" edge="1" parent="1" source="20" target="86">
                    <mxGeometry relative="1" as="geometry">
                        <Array as="points">
                            <mxPoint x="96" y="664.0909090909091"/>
                            <mxPoint x="168" y="937.5"/>
                        </Array>
                    </mxGeometry>
                </mxCell>
                <mxCell id="91" style="edgeStyle=none;html=1;noEdgeStyle=1;orthogonal=1;" edge="1" parent="1" source="20" target="87">
                    <mxGeometry relative="1" as="geometry">
                        <Array as="points">
                            <mxPoint x="98" y="657.7272727272727"/>
                            <mxPoint x="168" y="827.5"/>
                        </Array>
                    </mxGeometry>
                </mxCell>
                <mxCell id="92" style="edgeStyle=none;html=1;noEdgeStyle=1;orthogonal=1;" edge="1" parent="1" source="20" target="88">
                    <mxGeometry relative="1" as="geometry">
                        <Array as="points">
                            <mxPoint x="92" y="676.8181818181819"/>
                            <mxPoint x="168" y="1157.5"/>
                        </Array>
                    </mxGeometry>
                </mxCell>
                <mxCell id="93" style="edgeStyle=none;html=1;noEdgeStyle=1;orthogonal=1;" edge="1" parent="1" source="20" target="89">
                    <mxGeometry relative="1" as="geometry">
                        <Array as="points">
                            <mxPoint x="94" y="670.4545454545455"/>
                            <mxPoint x="168" y="1047.5"/>
                        </Array>
                    </mxGeometry>
                </mxCell>
                <mxCell id="20" value="x" style="ellipse;whiteSpace=wrap;html=1;aspect=fixed;glass=0;" parent="1" vertex="1">
                    <mxGeometry y="605" width="80" height="80" as="geometry"/>
                </mxCell>
                <mxCell id="45" style="edgeStyle=none;html=1;noEdgeStyle=1;orthogonal=1;" edge="1" parent="1" source="21" target="36">
                    <mxGeometry relative="1" as="geometry">
                        <Array as="points">
                            <mxPoint x="102" y="535"/>
                            <mxPoint x="168" y="572.5"/>
                        </Array>
                    </mxGeometry>
                </mxCell>
                <mxCell id="50" style="edgeStyle=none;html=1;noEdgeStyle=1;orthogonal=1;" edge="1" parent="1" source="21" target="34">
                    <mxGeometry relative="1" as="geometry">
                        <Array as="points">
                            <mxPoint x="100" y="541.3636363636364"/>
                            <mxPoint x="168" y="682.5"/>
                        </Array>
                    </mxGeometry>
                </mxCell>
                <mxCell id="51" style="edgeStyle=none;html=1;noEdgeStyle=1;orthogonal=1;" edge="1" parent="1" source="21" target="35">
                    <mxGeometry relative="1" as="geometry">
                        <Array as="points">
                            <mxPoint x="100" y="528.6363636363636"/>
                            <mxPoint x="168" y="462.5"/>
                        </Array>
                    </mxGeometry>
                </mxCell>
                <mxCell id="52" style="edgeStyle=none;html=1;noEdgeStyle=1;orthogonal=1;" edge="1" parent="1" source="21" target="37">
                    <mxGeometry relative="1" as="geometry">
                        <Array as="points">
                            <mxPoint x="94" y="509.54545454545456"/>
                            <mxPoint x="168" y="132.5"/>
                        </Array>
                    </mxGeometry>
                </mxCell>
                <mxCell id="53" style="edgeStyle=none;html=1;noEdgeStyle=1;orthogonal=1;" edge="1" parent="1" source="21" target="42">
                    <mxGeometry relative="1" as="geometry">
                        <Array as="points">
                            <mxPoint x="92" y="503.1818181818182"/>
                            <mxPoint x="168" y="22.5"/>
                        </Array>
                    </mxGeometry>
                </mxCell>
                <mxCell id="82" style="edgeStyle=none;html=1;noEdgeStyle=1;orthogonal=1;" edge="1" parent="1" source="21" target="80">
                    <mxGeometry relative="1" as="geometry">
                        <Array as="points">
                            <mxPoint x="98" y="522.2727272727273"/>
                            <mxPoint x="168" y="352.5"/>
                        </Array>
                    </mxGeometry>
                </mxCell>
                <mxCell id="85" style="edgeStyle=none;html=1;noEdgeStyle=1;orthogonal=1;" edge="1" parent="1" source="21" target="83">
                    <mxGeometry relative="1" as="geometry">
                        <Array as="points">
                            <mxPoint x="96" y="515.9090909090909"/>
                            <mxPoint x="168" y="242.5"/>
                        </Array>
                    </mxGeometry>
                </mxCell>
                <mxCell id="94" style="edgeStyle=none;html=1;noEdgeStyle=1;orthogonal=1;" edge="1" parent="1" source="21" target="86">
                    <mxGeometry relative="1" as="geometry">
                        <Array as="points">
                            <mxPoint x="96" y="554.0909090909091"/>
                            <mxPoint x="168" y="902.5"/>
                        </Array>
                    </mxGeometry>
                </mxCell>
                <mxCell id="95" style="edgeStyle=none;html=1;noEdgeStyle=1;orthogonal=1;" edge="1" parent="1" source="21" target="87">
                    <mxGeometry relative="1" as="geometry">
                        <Array as="points">
                            <mxPoint x="98" y="547.7272727272727"/>
                            <mxPoint x="168" y="792.5"/>
                        </Array>
                    </mxGeometry>
                </mxCell>
                <mxCell id="96" style="edgeStyle=none;html=1;noEdgeStyle=1;orthogonal=1;" edge="1" parent="1" source="21" target="88">
                    <mxGeometry relative="1" as="geometry">
                        <Array as="points">
                            <mxPoint x="92" y="566.8181818181819"/>
                            <mxPoint x="168" y="1122.5"/>
                        </Array>
                    </mxGeometry>
                </mxCell>
                <mxCell id="98" style="edgeStyle=none;html=1;noEdgeStyle=1;orthogonal=1;" edge="1" parent="1" source="21" target="89">
                    <mxGeometry relative="1" as="geometry">
                        <Array as="points">
                            <mxPoint x="94" y="560.4545454545455"/>
                            <mxPoint x="168" y="1012.5"/>
                        </Array>
                    </mxGeometry>
                </mxCell>
                <mxCell id="21" value="y" style="ellipse;whiteSpace=wrap;html=1;aspect=fixed;glass=0;" parent="1" vertex="1">
                    <mxGeometry y="495" width="80" height="80" as="geometry"/>
                </mxCell>
                <mxCell id="72" style="edgeStyle=none;html=1;noEdgeStyle=1;orthogonal=1;" edge="1" parent="1" source="34" target="69">
                    <mxGeometry relative="1" as="geometry">
                        <Array as="points">
                            <mxPoint x="272" y="700"/>
                            <mxPoint x="348" y="607.5"/>
                        </Array>
                    </mxGeometry>
                </mxCell>
                <mxCell id="34" value="L1" style="ellipse;whiteSpace=wrap;html=1;aspect=fixed;glass=0;" vertex="1" parent="1">
                    <mxGeometry x="180" y="660" width="80" height="80" as="geometry"/>
                </mxCell>
                <mxCell id="75" style="edgeStyle=none;html=1;noEdgeStyle=1;orthogonal=1;" edge="1" parent="1" source="35" target="69">
                    <mxGeometry relative="1" as="geometry">
                        <Array as="points">
                            <mxPoint x="272" y="480"/>
                            <mxPoint x="348" y="572.5"/>
                        </Array>
                    </mxGeometry>
                </mxCell>
                <mxCell id="35" value="L2" style="ellipse;whiteSpace=wrap;html=1;aspect=fixed;glass=0;" vertex="1" parent="1">
                    <mxGeometry x="180" y="440" width="80" height="80" as="geometry"/>
                </mxCell>
                <mxCell id="110" style="edgeStyle=none;html=1;noEdgeStyle=1;orthogonal=1;" edge="1" parent="1" source="36" target="109">
                    <mxGeometry relative="1" as="geometry">
                        <Array as="points">
                            <mxPoint x="272" y="572.5"/>
                            <mxPoint x="348" y="480"/>
                        </Array>
                    </mxGeometry>
                </mxCell>
                <mxCell id="111" style="edgeStyle=none;html=1;noEdgeStyle=1;orthogonal=1;" edge="1" parent="1" source="36" target="108">
                    <mxGeometry relative="1" as="geometry">
                        <Array as="points">
                            <mxPoint x="272" y="607.5"/>
                            <mxPoint x="348" y="700"/>
                        </Array>
                    </mxGeometry>
                </mxCell>
                <mxCell id="36" value="L3" style="ellipse;whiteSpace=wrap;html=1;aspect=fixed;glass=0;" vertex="1" parent="1">
                    <mxGeometry x="180" y="550" width="80" height="80" as="geometry"/>
                </mxCell>
                <mxCell id="99" style="edgeStyle=none;html=1;noEdgeStyle=1;orthogonal=1;" edge="1" parent="1" source="37" target="78">
                    <mxGeometry relative="1" as="geometry">
                        <Array as="points">
                            <mxPoint x="272" y="150"/>
                            <mxPoint x="348" y="222.5"/>
                        </Array>
                    </mxGeometry>
                </mxCell>
                <mxCell id="37" value="L4" style="ellipse;whiteSpace=wrap;html=1;aspect=fixed;glass=0;" vertex="1" parent="1">
                    <mxGeometry x="180" y="110" width="80" height="80" as="geometry"/>
                </mxCell>
                <mxCell id="100" style="edgeStyle=none;html=1;noEdgeStyle=1;orthogonal=1;" edge="1" parent="1" source="42" target="78">
                    <mxGeometry relative="1" as="geometry">
                        <Array as="points">
                            <mxPoint x="272" y="40"/>
                            <mxPoint x="348" y="187.5"/>
                        </Array>
                    </mxGeometry>
                </mxCell>
                <mxCell id="42" value="L5" style="ellipse;whiteSpace=wrap;html=1;aspect=fixed;glass=0;" vertex="1" parent="1">
                    <mxGeometry x="180" width="80" height="80" as="geometry"/>
                </mxCell>
                <mxCell id="141" style="edgeStyle=none;html=1;noEdgeStyle=1;orthogonal=1;" edge="1" parent="1" source="69" target="121">
                    <mxGeometry relative="1" as="geometry">
                        <Array as="points">
                            <mxPoint x="452" y="563.75"/>
                            <mxPoint x="528" y="448.3333333333333"/>
                        </Array>
                    </mxGeometry>
                </mxCell>
                <mxCell id="142" style="edgeStyle=none;html=1;noEdgeStyle=1;orthogonal=1;" edge="1" parent="1" source="69" target="123">
                    <mxGeometry relative="1" as="geometry">
                        <Array as="points">
                            <mxPoint x="454" y="581.25"/>
                            <mxPoint x="528" y="558.3333333333334"/>
                        </Array>
                    </mxGeometry>
                </mxCell>
                <mxCell id="143" style="edgeStyle=none;html=1;noEdgeStyle=1;orthogonal=1;" edge="1" parent="1" source="69" target="124">
                    <mxGeometry relative="1" as="geometry">
                        <Array as="points">
                            <mxPoint x="454" y="598.75"/>
                            <mxPoint x="528" y="621.6666666666666"/>
                        </Array>
                    </mxGeometry>
                </mxCell>
                <mxCell id="144" style="edgeStyle=none;html=1;noEdgeStyle=1;orthogonal=1;" edge="1" parent="1" source="69" target="122">
                    <mxGeometry relative="1" as="geometry">
                        <Array as="points">
                            <mxPoint x="452" y="616.25"/>
                            <mxPoint x="528" y="731.6666666666666"/>
                        </Array>
                    </mxGeometry>
                </mxCell>
                <mxCell id="69" value="AND" style="ellipse;whiteSpace=wrap;html=1;aspect=fixed;glass=0;" vertex="1" parent="1">
                    <mxGeometry x="360" y="550" width="80" height="80" as="geometry"/>
                </mxCell>
                <mxCell id="147" style="edgeStyle=none;html=1;noEdgeStyle=1;orthogonal=1;" edge="1" parent="1" source="76" target="124">
                    <mxGeometry relative="1" as="geometry">
                        <Array as="points">
                            <mxPoint x="452" y="810"/>
                            <mxPoint x="528" y="668.3333333333334"/>
                        </Array>
                    </mxGeometry>
                </mxCell>
                <mxCell id="76" value="AND" style="ellipse;whiteSpace=wrap;html=1;aspect=fixed;glass=0;" vertex="1" parent="1">
                    <mxGeometry x="360" y="770" width="80" height="80" as="geometry"/>
                </mxCell>
                <mxCell id="146" style="edgeStyle=none;html=1;noEdgeStyle=1;orthogonal=1;" edge="1" parent="1" source="77" target="123">
                    <mxGeometry relative="1" as="geometry">
                        <Array as="points">
                            <mxPoint x="452" y="370"/>
                            <mxPoint x="528" y="511.6666666666667"/>
                        </Array>
                    </mxGeometry>
                </mxCell>
                <mxCell id="77" value="AND" style="ellipse;whiteSpace=wrap;html=1;aspect=fixed;glass=0;" vertex="1" parent="1">
                    <mxGeometry x="360" y="330" width="80" height="80" as="geometry"/>
                </mxCell>
                <mxCell id="145" style="edgeStyle=none;html=1;noEdgeStyle=1;orthogonal=1;" edge="1" parent="1" source="78" target="121">
                    <mxGeometry relative="1" as="geometry">
                        <Array as="points">
                            <mxPoint x="452" y="205"/>
                            <mxPoint x="528" y="401.6666666666667"/>
                        </Array>
                    </mxGeometry>
                </mxCell>
                <mxCell id="78" value="AND" style="ellipse;whiteSpace=wrap;html=1;aspect=fixed;glass=0;" vertex="1" parent="1">
                    <mxGeometry x="360" y="165" width="80" height="80" as="geometry"/>
                </mxCell>
                <mxCell id="101" style="edgeStyle=none;html=1;noEdgeStyle=1;orthogonal=1;" edge="1" parent="1" source="80" target="77">
                    <mxGeometry relative="1" as="geometry">
                        <Array as="points">
                            <mxPoint x="272" y="370"/>
                            <mxPoint x="348" y="387.5"/>
                        </Array>
                    </mxGeometry>
                </mxCell>
                <mxCell id="80" value="L6" style="ellipse;whiteSpace=wrap;html=1;aspect=fixed;glass=0;" vertex="1" parent="1">
                    <mxGeometry x="180" y="330" width="80" height="80" as="geometry"/>
                </mxCell>
                <mxCell id="102" style="edgeStyle=none;html=1;noEdgeStyle=1;orthogonal=1;" edge="1" parent="1" source="83" target="77">
                    <mxGeometry relative="1" as="geometry">
                        <Array as="points">
                            <mxPoint x="272" y="260"/>
                            <mxPoint x="348" y="352.5"/>
                        </Array>
                    </mxGeometry>
                </mxCell>
                <mxCell id="83" value="L7" style="ellipse;whiteSpace=wrap;html=1;aspect=fixed;glass=0;" vertex="1" parent="1">
                    <mxGeometry x="180" y="220" width="80" height="80" as="geometry"/>
                </mxCell>
                <mxCell id="103" style="edgeStyle=none;html=1;noEdgeStyle=1;orthogonal=1;" edge="1" parent="1" source="86" target="76">
                    <mxGeometry relative="1" as="geometry">
                        <Array as="points">
                            <mxPoint x="272" y="920"/>
                            <mxPoint x="348" y="827.5"/>
                        </Array>
                    </mxGeometry>
                </mxCell>
                <mxCell id="86" value="L8" style="ellipse;whiteSpace=wrap;html=1;aspect=fixed;glass=0;" vertex="1" parent="1">
                    <mxGeometry x="180" y="880" width="80" height="80" as="geometry"/>
                </mxCell>
                <mxCell id="104" style="edgeStyle=none;html=1;noEdgeStyle=1;orthogonal=1;" edge="1" parent="1" source="87" target="76">
                    <mxGeometry relative="1" as="geometry">
                        <Array as="points">
                            <mxPoint x="272" y="810"/>
                            <mxPoint x="348" y="792.5"/>
                        </Array>
                    </mxGeometry>
                </mxCell>
                <mxCell id="87" value="L9" style="ellipse;whiteSpace=wrap;html=1;aspect=fixed;glass=0;" vertex="1" parent="1">
                    <mxGeometry x="180" y="770" width="80" height="80" as="geometry"/>
                </mxCell>
                <mxCell id="106" style="edgeStyle=none;html=1;noEdgeStyle=1;orthogonal=1;" edge="1" parent="1" source="88" target="105">
                    <mxGeometry relative="1" as="geometry">
                        <Array as="points">
                            <mxPoint x="272" y="1140"/>
                            <mxPoint x="348" y="992.5"/>
                        </Array>
                    </mxGeometry>
                </mxCell>
                <mxCell id="88" value="L10" style="ellipse;whiteSpace=wrap;html=1;aspect=fixed;glass=0;" vertex="1" parent="1">
                    <mxGeometry x="180" y="1100" width="80" height="80" as="geometry"/>
                </mxCell>
                <mxCell id="107" style="edgeStyle=none;html=1;noEdgeStyle=1;orthogonal=1;" edge="1" parent="1" source="89" target="105">
                    <mxGeometry relative="1" as="geometry">
                        <Array as="points">
                            <mxPoint x="272" y="1030"/>
                            <mxPoint x="348" y="957.5"/>
                        </Array>
                    </mxGeometry>
                </mxCell>
                <mxCell id="89" value="L11" style="ellipse;whiteSpace=wrap;html=1;aspect=fixed;glass=0;" vertex="1" parent="1">
                    <mxGeometry x="180" y="990" width="80" height="80" as="geometry"/>
                </mxCell>
                <mxCell id="148" style="edgeStyle=none;html=1;noEdgeStyle=1;orthogonal=1;" edge="1" parent="1" source="105" target="122">
                    <mxGeometry relative="1" as="geometry">
                        <Array as="points">
                            <mxPoint x="452" y="975"/>
                            <mxPoint x="528" y="778.3333333333334"/>
                        </Array>
                    </mxGeometry>
                </mxCell>
                <mxCell id="105" value="AND" style="ellipse;whiteSpace=wrap;html=1;aspect=fixed;glass=0;" vertex="1" parent="1">
                    <mxGeometry x="360" y="935" width="80" height="80" as="geometry"/>
                </mxCell>
                <mxCell id="139" style="edgeStyle=none;html=1;noEdgeStyle=1;orthogonal=1;" edge="1" parent="1" source="108" target="124">
                    <mxGeometry relative="1" as="geometry">
                        <Array as="points">
                            <mxPoint x="452" y="682.5"/>
                            <mxPoint x="526" y="645"/>
                        </Array>
                    </mxGeometry>
                </mxCell>
                <mxCell id="140" style="edgeStyle=none;html=1;noEdgeStyle=1;orthogonal=1;" edge="1" parent="1" source="108" target="122">
                    <mxGeometry relative="1" as="geometry">
                        <Array as="points">
                            <mxPoint x="452" y="717.5"/>
                            <mxPoint x="526" y="755"/>
                        </Array>
                    </mxGeometry>
                </mxCell>
                <mxCell id="108" value="OR" style="ellipse;whiteSpace=wrap;html=1;aspect=fixed;glass=0;" vertex="1" parent="1">
                    <mxGeometry x="360" y="660" width="80" height="80" as="geometry"/>
                </mxCell>
                <mxCell id="137" style="edgeStyle=none;html=1;noEdgeStyle=1;orthogonal=1;" edge="1" parent="1" source="109" target="121">
                    <mxGeometry relative="1" as="geometry">
                        <Array as="points">
                            <mxPoint x="452" y="462.5"/>
                            <mxPoint x="526" y="425"/>
                        </Array>
                    </mxGeometry>
                </mxCell>
                <mxCell id="138" style="edgeStyle=none;html=1;noEdgeStyle=1;orthogonal=1;" edge="1" parent="1" source="109" target="123">
                    <mxGeometry relative="1" as="geometry">
                        <Array as="points">
                            <mxPoint x="452" y="497.5"/>
                            <mxPoint x="526" y="535"/>
                        </Array>
                    </mxGeometry>
                </mxCell>
                <mxCell id="109" value="NOT" style="ellipse;whiteSpace=wrap;html=1;aspect=fixed;glass=0;" vertex="1" parent="1">
                    <mxGeometry x="360" y="440" width="80" height="80" as="geometry"/>
                </mxCell>
                <mxCell id="116" value="" style="group" vertex="1" connectable="0" parent="1">
                    <mxGeometry x="750" y="140" width="180" height="220" as="geometry"/>
                </mxCell>
                <mxCell id="68" value="L6" style="text;html=1;align=center;verticalAlign=middle;resizable=0;points=[];autosize=1;strokeColor=none;" vertex="1" parent="116">
                    <mxGeometry x="35" y="110" width="30" height="20" as="geometry"/>
                </mxCell>
                <mxCell id="12" value="" style="group;glass=0;" parent="116" vertex="1" connectable="0">
                    <mxGeometry x="10" y="60" width="160" height="60" as="geometry"/>
                </mxCell>
                <mxCell id="6" value="" style="endArrow=none;html=1;" parent="12" edge="1">
                    <mxGeometry width="50" height="50" relative="1" as="geometry">
                        <mxPoint as="sourcePoint"/>
                        <mxPoint x="80" y="20" as="targetPoint"/>
                    </mxGeometry>
                </mxCell>
                <mxCell id="7" value="" style="endArrow=none;html=1;" parent="12" edge="1">
                    <mxGeometry width="50" height="50" relative="1" as="geometry">
                        <mxPoint as="sourcePoint"/>
                        <mxPoint y="40" as="targetPoint"/>
                    </mxGeometry>
                </mxCell>
                <mxCell id="8" value="" style="endArrow=none;html=1;" parent="12" edge="1">
                    <mxGeometry width="50" height="50" relative="1" as="geometry">
                        <mxPoint y="40" as="sourcePoint"/>
                        <mxPoint x="80" y="60" as="targetPoint"/>
                    </mxGeometry>
                </mxCell>
                <mxCell id="9" value="" style="endArrow=none;html=1;" parent="12" edge="1">
                    <mxGeometry width="50" height="50" relative="1" as="geometry">
                        <mxPoint x="80" y="20" as="sourcePoint"/>
                        <mxPoint x="160" as="targetPoint"/>
                    </mxGeometry>
                </mxCell>
                <mxCell id="10" value="" style="endArrow=none;html=1;" parent="12" edge="1">
                    <mxGeometry width="50" height="50" relative="1" as="geometry">
                        <mxPoint x="80" y="60" as="sourcePoint"/>
                        <mxPoint x="160" y="40" as="targetPoint"/>
                    </mxGeometry>
                </mxCell>
                <mxCell id="11" value="" style="endArrow=none;html=1;" parent="12" edge="1">
                    <mxGeometry width="50" height="50" relative="1" as="geometry">
                        <mxPoint x="160" as="sourcePoint"/>
                        <mxPoint x="160" y="40" as="targetPoint"/>
                    </mxGeometry>
                </mxCell>
                <mxCell id="67" value="L7" style="text;html=1;align=center;verticalAlign=middle;resizable=0;points=[];autosize=1;strokeColor=none;" vertex="1" parent="12">
                    <mxGeometry x="25" y="-10" width="30" height="20" as="geometry"/>
                </mxCell>
                <mxCell id="115" value="L11" style="text;html=1;align=center;verticalAlign=middle;resizable=0;points=[];autosize=1;strokeColor=none;" vertex="1" parent="12">
                    <mxGeometry x="110" y="-10" width="30" height="20" as="geometry"/>
                </mxCell>
                <mxCell id="132" value="B" style="text;html=1;align=center;verticalAlign=middle;resizable=0;points=[];autosize=1;strokeColor=none;" vertex="1" parent="12">
                    <mxGeometry x="20" y="20" width="20" height="20" as="geometry"/>
                </mxCell>
                <mxCell id="134" value="D" style="text;html=1;align=center;verticalAlign=middle;resizable=0;points=[];autosize=1;strokeColor=none;" vertex="1" parent="12">
                    <mxGeometry x="120" y="20" width="20" height="20" as="geometry"/>
                </mxCell>
                <mxCell id="13" value="" style="group" parent="116" vertex="1" connectable="0">
                    <mxGeometry x="10" y="140" width="160" height="60" as="geometry"/>
                </mxCell>
                <mxCell id="14" value="" style="endArrow=none;html=1;" parent="13" edge="1">
                    <mxGeometry width="50" height="50" relative="1" as="geometry">
                        <mxPoint as="sourcePoint"/>
                        <mxPoint x="80" y="20" as="targetPoint"/>
                    </mxGeometry>
                </mxCell>
                <mxCell id="15" value="" style="endArrow=none;html=1;" parent="13" edge="1">
                    <mxGeometry width="50" height="50" relative="1" as="geometry">
                        <mxPoint as="sourcePoint"/>
                        <mxPoint y="40" as="targetPoint"/>
                    </mxGeometry>
                </mxCell>
                <mxCell id="16" value="" style="endArrow=none;html=1;" parent="13" edge="1">
                    <mxGeometry width="50" height="50" relative="1" as="geometry">
                        <mxPoint y="40" as="sourcePoint"/>
                        <mxPoint x="80" y="60" as="targetPoint"/>
                    </mxGeometry>
                </mxCell>
                <mxCell id="17" value="" style="endArrow=none;html=1;" parent="13" edge="1">
                    <mxGeometry width="50" height="50" relative="1" as="geometry">
                        <mxPoint x="80" y="20" as="sourcePoint"/>
                        <mxPoint x="160" as="targetPoint"/>
                    </mxGeometry>
                </mxCell>
                <mxCell id="18" value="" style="endArrow=none;html=1;" parent="13" edge="1">
                    <mxGeometry width="50" height="50" relative="1" as="geometry">
                        <mxPoint x="80" y="60" as="sourcePoint"/>
                        <mxPoint x="160" y="40" as="targetPoint"/>
                    </mxGeometry>
                </mxCell>
                <mxCell id="19" value="" style="endArrow=none;html=1;" parent="13" edge="1">
                    <mxGeometry width="50" height="50" relative="1" as="geometry">
                        <mxPoint x="160" as="sourcePoint"/>
                        <mxPoint x="160" y="40" as="targetPoint"/>
                    </mxGeometry>
                </mxCell>
                <mxCell id="113" value="L9" style="text;html=1;align=center;verticalAlign=middle;resizable=0;points=[];autosize=1;strokeColor=none;" vertex="1" parent="13">
                    <mxGeometry x="110" y="-10" width="30" height="20" as="geometry"/>
                </mxCell>
                <mxCell id="135" value="C" style="text;html=1;align=center;verticalAlign=middle;resizable=0;points=[];autosize=1;strokeColor=none;" vertex="1" parent="13">
                    <mxGeometry x="120" y="20" width="20" height="20" as="geometry"/>
                </mxCell>
                <mxCell id="133" value="A" style="text;html=1;align=center;verticalAlign=middle;resizable=0;points=[];autosize=1;strokeColor=none;" vertex="1" parent="13">
                    <mxGeometry x="20" y="20" width="20" height="20" as="geometry"/>
                </mxCell>
                <mxCell id="55" value="" style="endArrow=none;dashed=1;html=1;" edge="1" parent="116">
                    <mxGeometry width="50" height="50" relative="1" as="geometry">
                        <mxPoint x="90" y="220" as="sourcePoint"/>
                        <mxPoint x="90" y="20" as="targetPoint"/>
                    </mxGeometry>
                </mxCell>
                <mxCell id="56" value="" style="endArrow=none;dashed=1;html=1;" edge="1" parent="116">
                    <mxGeometry width="50" height="50" relative="1" as="geometry">
                        <mxPoint x="9.600000000000023" y="220" as="sourcePoint"/>
                        <mxPoint x="9.600000000000023" y="20" as="targetPoint"/>
                    </mxGeometry>
                </mxCell>
                <mxCell id="57" value="" style="endArrow=none;dashed=1;html=1;" edge="1" parent="116">
                    <mxGeometry width="50" height="50" relative="1" as="geometry">
                        <mxPoint x="170" y="220" as="sourcePoint"/>
                        <mxPoint x="170" y="20" as="targetPoint"/>
                    </mxGeometry>
                </mxCell>
                <mxCell id="58" value="L1" style="text;html=1;align=center;verticalAlign=middle;resizable=0;points=[];autosize=1;strokeColor=none;" vertex="1" parent="116">
                    <mxGeometry width="30" height="20" as="geometry"/>
                </mxCell>
                <mxCell id="60" value="L3" style="text;html=1;align=center;verticalAlign=middle;resizable=0;points=[];autosize=1;strokeColor=none;" vertex="1" parent="116">
                    <mxGeometry x="75" width="30" height="20" as="geometry"/>
                </mxCell>
                <mxCell id="61" value="L2" style="text;html=1;align=center;verticalAlign=middle;resizable=0;points=[];autosize=1;strokeColor=none;" vertex="1" parent="116">
                    <mxGeometry x="150" width="30" height="20" as="geometry"/>
                </mxCell>
                <mxCell id="65" value="L5" style="text;html=1;align=center;verticalAlign=middle;resizable=0;points=[];autosize=1;strokeColor=none;" vertex="1" parent="116">
                    <mxGeometry x="35" y="130" width="30" height="20" as="geometry"/>
                </mxCell>
                <mxCell id="66" value="L4" style="text;html=1;align=center;verticalAlign=middle;resizable=0;points=[];autosize=1;strokeColor=none;" vertex="1" parent="116">
                    <mxGeometry x="35" y="190" width="30" height="20" as="geometry"/>
                </mxCell>
                <mxCell id="112" value="L8" style="text;html=1;align=center;verticalAlign=middle;resizable=0;points=[];autosize=1;strokeColor=none;" vertex="1" parent="116">
                    <mxGeometry x="120" y="190" width="30" height="20" as="geometry"/>
                </mxCell>
                <mxCell id="114" value="L10" style="text;html=1;align=center;verticalAlign=middle;resizable=0;points=[];autosize=1;strokeColor=none;" vertex="1" parent="116">
                    <mxGeometry x="115" y="110" width="40" height="20" as="geometry"/>
                </mxCell>
                <mxCell id="126" style="edgeStyle=none;html=1;noEdgeStyle=1;orthogonal=1;" edge="1" parent="1" source="121" target="125">
                    <mxGeometry relative="1" as="geometry">
                        <Array as="points">
                            <mxPoint x="632" y="425"/>
                            <mxPoint x="708" y="563.75"/>
                        </Array>
                    </mxGeometry>
                </mxCell>
                <mxCell id="121" value="AND&lt;br&gt;A" style="ellipse;whiteSpace=wrap;html=1;aspect=fixed;glass=0;" vertex="1" parent="1">
                    <mxGeometry x="540" y="385" width="80" height="80" as="geometry"/>
                </mxCell>
                <mxCell id="129" style="edgeStyle=none;html=1;noEdgeStyle=1;orthogonal=1;" edge="1" parent="1" source="122" target="125">
                    <mxGeometry relative="1" as="geometry">
                        <Array as="points">
                            <mxPoint x="632" y="755"/>
                            <mxPoint x="708" y="616.25"/>
                        </Array>
                    </mxGeometry>
                </mxCell>
                <mxCell id="122" value="AND&lt;br&gt;D" style="ellipse;whiteSpace=wrap;html=1;aspect=fixed;glass=0;" vertex="1" parent="1">
                    <mxGeometry x="540" y="715" width="80" height="80" as="geometry"/>
                </mxCell>
                <mxCell id="127" style="edgeStyle=none;html=1;noEdgeStyle=1;orthogonal=1;" edge="1" parent="1" source="123" target="125">
                    <mxGeometry relative="1" as="geometry">
                        <Array as="points">
                            <mxPoint x="632" y="535"/>
                            <mxPoint x="706" y="581.25"/>
                        </Array>
                    </mxGeometry>
                </mxCell>
                <mxCell id="123" value="AND&lt;br&gt;B" style="ellipse;whiteSpace=wrap;html=1;aspect=fixed;glass=0;" vertex="1" parent="1">
                    <mxGeometry x="540" y="495" width="80" height="80" as="geometry"/>
                </mxCell>
                <mxCell id="128" style="edgeStyle=none;html=1;noEdgeStyle=1;orthogonal=1;" edge="1" parent="1" source="124" target="125">
                    <mxGeometry relative="1" as="geometry">
                        <Array as="points">
                            <mxPoint x="632" y="645"/>
                            <mxPoint x="706" y="598.75"/>
                        </Array>
                    </mxGeometry>
                </mxCell>
                <mxCell id="124" value="AND&lt;br&gt;C" style="ellipse;whiteSpace=wrap;html=1;aspect=fixed;glass=0;" vertex="1" parent="1">
                    <mxGeometry x="540" y="605" width="80" height="80" as="geometry"/>
                </mxCell>
                <mxCell id="131" style="edgeStyle=none;html=1;noEdgeStyle=1;orthogonal=1;" edge="1" parent="1" source="125" target="130">
                    <mxGeometry relative="1" as="geometry">
                        <Array as="points">
                            <mxPoint x="812" y="590"/>
                            <mxPoint x="888" y="590"/>
                        </Array>
                    </mxGeometry>
                </mxCell>
                <mxCell id="125" value="OR" style="ellipse;whiteSpace=wrap;html=1;aspect=fixed;glass=0;" vertex="1" parent="1">
                    <mxGeometry x="720" y="550" width="80" height="80" as="geometry"/>
                </mxCell>
                <mxCell id="130" value="Inside&lt;br&gt;Shape" style="ellipse;whiteSpace=wrap;html=1;aspect=fixed;glass=0;" vertex="1" parent="1">
                    <mxGeometry x="900" y="550" width="80" height="80" as="geometry"/>
                </mxCell>
            </root>
        </mxGraphModel>
    </diagram>
</mxfile>
